<svg xmlns="http://www.w3.org/2000/svg" viewBox="0 0 12.83 21.4"><defs><style>.\37 6dbb06e-800a-4eca-bc55-94138be43d57{fill:#303a43;}</style></defs><title>Asset 3</title><g id="406489ea-c85b-4787-ba4e-f974aa1d5568" data-name="Layer 2"><g id="ab3b7e0f-9bff-4c41-a195-a431f5385b66" data-name="Layer 1"><path class="76dbb06e-800a-4eca-bc55-94138be43d57" d="M7.45,15.07l4,4a1.1,1.1,0,0,1,.29,1.23,1.57,1.57,0,0,1-.94,1A1.07,1.07,0,0,1,9.62,21L6.41,17.83,3.24,21A1.12,1.12,0,0,1,2,21.29a1.5,1.5,0,0,1-1-.94,1.07,1.07,0,0,1,.33-1.23l4-4a8.53,8.53,0,0,1-3.8-1.13A5.9,5.9,0,0,1,.19,12.77a1.2,1.2,0,0,1,0-1.29A1.13,1.13,0,0,1,1,10.81a1.64,1.64,0,0,1,1.42.42l.5.33a9.63,9.63,0,0,0,1.34.58,7.91,7.91,0,0,0,4.26,0,9.63,9.63,0,0,0,1.34-.58l.5-.33a1.7,1.7,0,0,1,1.46-.42,1.24,1.24,0,0,1,.83.67,1.26,1.26,0,0,1,0,1.29,5.9,5.9,0,0,1-1.42,1.17A8.69,8.69,0,0,1,7.45,15.07ZM1.71,2.69a5.46,5.46,0,0,1,2-2,5.41,5.41,0,0,1,5.43,0,5.46,5.46,0,0,1,2,2,5.22,5.22,0,0,1,.73,2.71,5.22,5.22,0,0,1-.73,2.71,5.46,5.46,0,0,1-2,2,5.4,5.4,0,0,1-5.43,0,5.46,5.46,0,0,1-2-2A5.18,5.18,0,0,1,1,5.43,5.26,5.26,0,0,1,1.71,2.69ZM4.53,7.29a2.67,2.67,0,0,0,3.76,0,2.53,2.53,0,0,0,.79-1.88,2.52,2.52,0,0,0-.79-1.88,2.67,2.67,0,0,0-3.76,0,2.55,2.55,0,0,0-.79,1.9A2.5,2.5,0,0,0,4.53,7.29Z"/></g></g></svg>