<svg xmlns="http://www.w3.org/2000/svg" viewBox="0 0 22.79 16.03"><defs><style>.\38 0cfd2a5-d9c5-43aa-93fa-973750a94e69{fill:#303a43;}</style></defs><title>Asset 6</title><g id="aa5fa878-e0b2-4daa-96d9-b8d5783c497f" data-name="Layer 2"><g id="94d20239-9679-477d-adbc-e9198a5c8731" data-name="Layer 1"><path class="80cfd2a5-d9c5-43aa-93fa-973750a94e69" d="M22.34,2.5a18.87,18.87,0,0,1,.42,3.42l0,2.09,0,2.09a19.09,19.09,0,0,1-.42,3.46,2.92,2.92,0,0,1-.75,1.25,2.89,2.89,0,0,1-1.29.75A29.68,29.68,0,0,1,15.2,16l-3.8,0L7.6,16a29.68,29.68,0,0,1-5.09-.42,2.89,2.89,0,0,1-1.29-.75,2.92,2.92,0,0,1-.75-1.25A19.09,19.09,0,0,1,0,10.1L0,8Q0,7.1,0,5.93A18.87,18.87,0,0,1,.46,2.5a2.92,2.92,0,0,1,2-2A29.68,29.68,0,0,1,7.6,0l3.8,0,3.8,0a29.68,29.68,0,0,1,5.09.42,2.92,2.92,0,0,1,2,2ZM9.06,11.44,15,8l-6-3.38Z"/></g></g></svg>