<svg xmlns="http://www.w3.org/2000/svg" viewBox="0 0 23.83 14.17"><defs><style>.\37 6e5c56f-d57f-45a2-8de8-5673635ece32{fill:#303a43;}</style></defs><title>Asset 9</title><g id="349a3548-9133-491f-8888-8f76c1654330" data-name="Layer 2"><g id="e357f53f-65ca-4075-b8ea-1626558fbab2" data-name="Layer 1"><path class="76e5c56f-d57f-45a2-8de8-5673635ece32" d="M23.29,1a8.52,8.52,0,0,1-1.06,2.21q-.66,1.11-1.59,2.57-.8,1.15-.84,1.2a1.28,1.28,0,0,0-.27.62.89.89,0,0,0,.27.53l.4.44q3.19,3.28,3.59,4.52a.88.88,0,0,1-.11.82,1,1,0,0,1-.78.29H20.28a1.41,1.41,0,0,1-.89-.31,6.79,6.79,0,0,1-1-1q-.69-.77-1.22-1.31-1.77-1.68-2.61-1.68a.78.78,0,0,0-.51.13.77.77,0,0,0-.16.58,12.74,12.74,0,0,0,0,1.37v1.15a.77.77,0,0,1-.27.75,3.2,3.2,0,0,1-1.59.27,8.3,8.3,0,0,1-4.21-1.24A11.74,11.74,0,0,1,4.12,9.39,26.62,26.62,0,0,1,1.59,5.27a26.5,26.5,0,0,1-1.28-3A6.83,6.83,0,0,1,0,.75Q0,0,.88,0H3.5a1.06,1.06,0,0,1,.73.22,1.8,1.8,0,0,1,.42.8,25.52,25.52,0,0,0,1.5,3.45A14.44,14.44,0,0,0,7.75,7Q8.55,8,9,8a.4.4,0,0,0,.38-.2A1.82,1.82,0,0,0,9.48,7V3.14A3.19,3.19,0,0,0,9.17,1.9a2.94,2.94,0,0,0-.44-.69A1.1,1.1,0,0,1,8.41.6a.55.55,0,0,1,.2-.42A.68.68,0,0,1,9.08,0H13.2a.63.63,0,0,1,.55.22A1.36,1.36,0,0,1,13.9,1V6.11a1,1,0,0,0,.13.58.4.4,0,0,0,.33.18,1,1,0,0,0,.46-.16,3.48,3.48,0,0,0,.71-.64,15.43,15.43,0,0,0,1.68-2.3,23.76,23.76,0,0,0,1.11-2.13l.44-.89A1.11,1.11,0,0,1,19.88,0h2.61Q23.56,0,23.29,1Z"/></g></g></svg>