<svg xmlns="http://www.w3.org/2000/svg" viewBox="0 0 14.57 18.97"><defs><style>.\34 d6f8604-ba7f-4c8f-94c4-767e67b6f8e0{fill:#303a43;}</style></defs><title>Asset 2</title><g id="391829c3-54d0-498f-b2e5-9bf45d449ea8" data-name="Layer 2"><g id="7a349846-4e0b-4b6a-a80d-a5eceb32ed8c" data-name="Layer 1"><path class="4d6f8604-ba7f-4c8f-94c4-767e67b6f8e0" d="M7.74,0A7.87,7.87,0,0,1,11.1.82,6.24,6.24,0,0,1,13.59,3a5.86,5.86,0,0,1,1,3.32A9.86,9.86,0,0,1,14,9.75,6.56,6.56,0,0,1,12,12.56a5.08,5.08,0,0,1-3.3,1.14,3.51,3.51,0,0,1-1.52-.36,2.32,2.32,0,0,1-1.1-1l-.3,1.21A24.21,24.21,0,0,1,5,16.28,14.94,14.94,0,0,1,3.38,18.9L3.23,19l-.11-.11,0-.57Q3,17.23,3,16.7a15.19,15.19,0,0,1,.38-3q.23-1.06.76-3.15l.46-1.82a4.08,4.08,0,0,1-.38-1.9A2.85,2.85,0,0,1,4.74,5,2.09,2.09,0,0,1,6,4.29a1.45,1.45,0,0,1,1.25.27,1.58,1.58,0,0,1,.53,1.33A4.61,4.61,0,0,1,7.59,7,9.47,9.47,0,0,1,7.25,8a9.44,9.44,0,0,0-.34,1.06,4.49,4.49,0,0,0-.15,1.06,1.56,1.56,0,0,0,.51,1.2,1.75,1.75,0,0,0,1.23.47,2.52,2.52,0,0,0,2-1.06,5.63,5.63,0,0,0,1.06-2.35A9.84,9.84,0,0,0,11.92,6,3.91,3.91,0,0,0,10.68,3a4.69,4.69,0,0,0-3.25-1.1,5.51,5.51,0,0,0-2.71.68A4.92,4.92,0,0,0,2.81,4.4,5.26,5.26,0,0,0,2.13,7.1a3.55,3.55,0,0,0,.23,1.25,4.2,4.2,0,0,0,.42.83A1.42,1.42,0,0,1,3,9.68a2.49,2.49,0,0,1-.15.76c-.13.38-.27.57-.42.57a1.66,1.66,0,0,1-1.06-.51A4,4,0,0,1,.42,9.11,6,6,0,0,1,0,6.83,6.11,6.11,0,0,1,1.14,3.19,7.31,7.31,0,0,1,4,.85,8.59,8.59,0,0,1,7.74,0Z"/></g></g></svg>