<svg xmlns="http://www.w3.org/2000/svg" viewBox="0 0 24.86 15.54"><defs><style>.d6c869f5-2fe9-43c2-9e1c-965bc4ac811f{fill:#303a43;}</style></defs><title>Asset 5</title><g id="8228f43c-0005-4312-a284-23204be06ccb" data-name="Layer 2"><g id="5612d423-a9ac-4572-8e60-8632c7a3cd99" data-name="Layer 1"><path class="d6c869f5-2fe9-43c2-9e1c-965bc4ac811f" d="M15.22,7.93a8.17,8.17,0,0,1-.93,3.95,6.73,6.73,0,0,1-2.63,2.69,7.69,7.69,0,0,1-3.89,1,7.61,7.61,0,0,1-3.91-1.05A7.71,7.71,0,0,1,1,11.66,7.61,7.61,0,0,1,0,7.77,7.61,7.61,0,0,1,1,3.89,7.71,7.71,0,0,1,3.87,1.05,7.61,7.61,0,0,1,7.77,0,7.28,7.28,0,0,1,13,2L10.85,4A4.25,4.25,0,0,0,7.77,2.87,4.79,4.79,0,0,0,3.6,5.3a5,5,0,0,0,0,4.94,4.79,4.79,0,0,0,4.17,2.43,4.86,4.86,0,0,0,2.47-.61,3.74,3.74,0,0,0,1.38-1.38,3.75,3.75,0,0,0,.57-1.34H7.77V6.64H15.1A7.46,7.46,0,0,1,15.22,7.93Zm7.37-3.28H20.32V6.92H18.09V9.19h2.23v2.27h2.27V9.19h2.27V6.92H22.59Z"/></g></g></svg>