<svg xmlns="http://www.w3.org/2000/svg" viewBox="0 0 18.14 18.14"><defs><style>.\33 efe278b-8ab9-4ff4-8190-349876711cc0{fill:#303a43;}</style></defs><title>Asset 4</title><g id="66753256-9ef7-44a1-9aea-a2da48aa3564" data-name="Layer 2"><g id="92ff3849-ef3d-4f6e-8a43-4c31e4e95e1f" data-name="Layer 1"><path class="3efe278b-8ab9-4ff4-8190-349876711cc0" d="M.65,3.72A2.1,2.1,0,0,1,0,2.19,2.1,2.1,0,0,1,.65.65,2.1,2.1,0,0,1,2.19,0,2.1,2.1,0,0,1,3.72.65a2.1,2.1,0,0,1,.65,1.54,2.1,2.1,0,0,1-.65,1.54,2.1,2.1,0,0,1-1.54.65A2.1,2.1,0,0,1,.65,3.72ZM.28,18.14V6H4v12.1Zm14.09,0V12.23a6.53,6.53,0,0,0-.24-2.1A1.7,1.7,0,0,0,12.39,9a1.9,1.9,0,0,0-1.82,1,4.52,4.52,0,0,0-.4,2.15v6H6.44V6H10V7.69h0a3.23,3.23,0,0,1,1.29-1.34,4,4,0,0,1,2.27-.65,4,4,0,0,1,3.68,1.66,8.18,8.18,0,0,1,.81,4.13v6.64Z"/></g></g></svg>