<svg xmlns="http://www.w3.org/2000/svg" viewBox="0 0 19.43 15.79"><defs><style>.\30 07b2a51-812d-42e4-833d-67d1a17e3ee0{fill:#303a43;}</style></defs><title>Asset 7</title><g id="fe14152e-b52c-46e1-a9f0-8275e68b26c9" data-name="Layer 2"><g id="262f6ef7-1060-4a96-a3a9-5192580afa7f" data-name="Layer 1"><path class="007b2a51-812d-42e4-833d-67d1a17e3ee0" d="M17.46,4.44a11.25,11.25,0,0,1-1.33,5.27A10.83,10.83,0,0,1,12.29,14a11,11,0,0,1-6.19,1.78A11.06,11.06,0,0,1,0,14q.42,0,.95,0a7.9,7.9,0,0,0,5-1.71,3.71,3.71,0,0,1-2.33-.78,4,4,0,0,1-1.38-2q.38,0,.72,0A5.06,5.06,0,0,0,4,9.52a4,4,0,0,1-2.28-1.4A3.82,3.82,0,0,1,.8,5.62V5.54a3.75,3.75,0,0,0,1.78.53A4.42,4.42,0,0,1,1.29,4.63,3.87,3.87,0,0,1,1.37.72,11,11,0,0,0,5,3.68,11,11,0,0,0,9.56,4.9,5.51,5.51,0,0,1,9.49,4,4,4,0,0,1,10,2,3.9,3.9,0,0,1,11.46.53,4,4,0,0,1,15,.34a4.5,4.5,0,0,1,1.31.91A8.09,8.09,0,0,0,18.9.3a4,4,0,0,1-1.75,2.2,8.56,8.56,0,0,0,2.28-.65,8.74,8.74,0,0,1-2,2.09A2.26,2.26,0,0,1,17.46,4.44Z"/></g></g></svg>