<svg xmlns="http://www.w3.org/2000/svg" viewBox="0 0 26.97 16.87"><defs><style>.\36 d1960da-1e6d-45e8-9308-b6d19fbf78a6{fill:#d6492f;}</style></defs><title>google+</title><g id="2ccd6dd0-676d-4f8c-88ed-a5a84b219b94" data-name="Layer 2"><g id="72d2691e-5fb4-4a20-aa3d-241f2aebed9b" data-name="Layer 1"><path class="6d1960da-1e6d-45e8-9308-b6d19fbf78a6" d="M16.52,8.61a8.85,8.85,0,0,1-1,4.28,7.3,7.3,0,0,1-2.86,2.92,8.35,8.35,0,0,1-4.22,1.05A8.26,8.26,0,0,1,4.2,15.73a8.37,8.37,0,0,1-3.08-3.08A8.26,8.26,0,0,1,0,8.43,8.26,8.26,0,0,1,1.12,4.22,8.37,8.37,0,0,1,4.2,1.14,8.26,8.26,0,0,1,8.43,0a7.9,7.9,0,0,1,5.62,2.2l-2.28,2.2A4.61,4.61,0,0,0,8.43,3.12,5.19,5.19,0,0,0,3.91,5.75a5.46,5.46,0,0,0,0,5.36,5.19,5.19,0,0,0,4.53,2.64,5.27,5.27,0,0,0,2.68-.66,4.06,4.06,0,0,0,1.49-1.49,4.08,4.08,0,0,0,.62-1.45H8.43V7.2h8A8.11,8.11,0,0,1,16.52,8.61Zm8-3.56H22.05V7.51H19.64V10h2.42v2.46h2.46V10H27V7.51H24.51Z"/></g></g></svg>