<svg xmlns="http://www.w3.org/2000/svg" viewBox="0 0 19.68 19.68"><defs><style>.\34 b5eeece-1592-4d96-8fe1-a393656a301f{fill:#0274b3;}</style></defs><title>in</title><g id="92cd014a-a049-4df0-807b-f5a9e29c6543" data-name="Layer 2"><g id="a478b1fb-f1e5-4539-ba76-c2a742481da4" data-name="Layer 1"><path class="4b5eeece-1592-4d96-8fe1-a393656a301f" d="M.7,4A2.28,2.28,0,0,1,0,2.37,2.28,2.28,0,0,1,.7.7,2.28,2.28,0,0,1,2.37,0,2.28,2.28,0,0,1,4,.7a2.28,2.28,0,0,1,.7,1.67A2.28,2.28,0,0,1,4,4a2.28,2.28,0,0,1-1.67.7A2.28,2.28,0,0,1,.7,4ZM.31,19.68V6.55H4.39V19.68Zm15.29,0V13.27A7.13,7.13,0,0,0,15.33,11,1.85,1.85,0,0,0,13.44,9.8a2.06,2.06,0,0,0-2,1.05A4.9,4.9,0,0,0,11,13.18v6.5H7V6.55h3.91v1.8h0A3.51,3.51,0,0,1,12.34,6.9a4.33,4.33,0,0,1,2.46-.7q2.85,0,4,1.8a8.88,8.88,0,0,1,.88,4.48v7.2Z"/></g></g></svg>