<svg xmlns="http://www.w3.org/2000/svg" viewBox="0 0 13.92 23.23"><defs><style>.\31 f220376-eca5-406a-a9b5-8fb8f1ed73f8{fill:#ff8b00;}</style></defs><title>o</title><g id="69ef25ef-594b-46d1-8eaa-34a4c2399d40" data-name="Layer 2"><g id="19d04e07-2148-4fef-9868-6e3b09933e34" data-name="Layer 1"><path class="1f220376-eca5-406a-a9b5-8fb8f1ed73f8" d="M8.09,16.35l4.39,4.39a1.19,1.19,0,0,1,.32,1.34,1.7,1.7,0,0,1-1,1,1.16,1.16,0,0,1-1.34-.29L7,19.34,3.51,22.79a1.22,1.22,0,0,1-1.36.32,1.63,1.63,0,0,1-1-1,1.16,1.16,0,0,1,.36-1.34l4.39-4.39a9.25,9.25,0,0,1-4.12-1.22A6.41,6.41,0,0,1,.2,13.86a1.31,1.31,0,0,1,0-1.4,1.23,1.23,0,0,1,.91-.73,1.78,1.78,0,0,1,1.54.45l.54.36a10.49,10.49,0,0,0,1.45.63,8.57,8.57,0,0,0,4.62,0,10.49,10.49,0,0,0,1.45-.63l.54-.36a1.85,1.85,0,0,1,1.58-.45,1.43,1.43,0,0,1,.86,2.13,6.41,6.41,0,0,1-1.54,1.27A9.43,9.43,0,0,1,8.09,16.35ZM1.86,2.92A5.93,5.93,0,0,1,4,.79,5.86,5.86,0,0,1,9.9.79a5.93,5.93,0,0,1,2.15,2.13,5.66,5.66,0,0,1,.79,2.94,5.66,5.66,0,0,1-.79,2.94A5.93,5.93,0,0,1,9.9,10.94a5.87,5.87,0,0,1-5.89,0A5.93,5.93,0,0,1,1.86,8.81a5.62,5.62,0,0,1-.79-2.92A5.7,5.7,0,0,1,1.86,2.92Zm3.06,5A2.9,2.9,0,0,0,9,7.91a2.74,2.74,0,0,0,.86-2,2.74,2.74,0,0,0-.86-2,2.9,2.9,0,0,0-4.08,0,2.76,2.76,0,0,0-.86,2.06A2.71,2.71,0,0,0,4.92,7.91Z"/></g></g></svg>