<svg xmlns="http://www.w3.org/2000/svg" viewBox="0 0 15.81 20.59"><defs><style>.ba783b57-de92-4431-9476-c48acbf5965e{fill:#bd081c;}</style></defs><title>pin</title><g id="0c43dd3b-80ab-4a32-97f3-26141a24a2bf" data-name="Layer 2"><g id="3ab2020d-6149-4a85-a9ba-68ea99e42f35" data-name="Layer 1"><path class="ba783b57-de92-4431-9476-c48acbf5965e" d="M8.4,0A8.54,8.54,0,0,1,12,.89a6.77,6.77,0,0,1,2.7,2.33,6.35,6.35,0,0,1,1.07,3.6,10.71,10.71,0,0,1-.66,3.77,7.12,7.12,0,0,1-2.1,3,5.51,5.51,0,0,1-3.58,1.24,3.81,3.81,0,0,1-1.65-.39,2.51,2.51,0,0,1-1.19-1.09L6.3,14.7a26.52,26.52,0,0,1-.86,3,16.35,16.35,0,0,1-1.77,2.84l-.16.08-.12-.12,0-.62q-.12-1.15-.12-1.73a16.5,16.5,0,0,1,.41-3.21q.25-1.15.82-3.42l.49-2a4.41,4.41,0,0,1-.41-2.06,3.1,3.1,0,0,1,.62-2,2.27,2.27,0,0,1,1.32-.82,1.57,1.57,0,0,1,1.36.29A1.72,1.72,0,0,1,8.4,6.38a4.94,4.94,0,0,1-.17,1.19,10,10,0,0,1-.37,1.15A10.22,10.22,0,0,0,7.5,9.88,4.85,4.85,0,0,0,7.33,11a1.69,1.69,0,0,0,.56,1.3,1.9,1.9,0,0,0,1.34.51,2.74,2.74,0,0,0,2.22-1.15A6.12,6.12,0,0,0,12.6,9.14a10.66,10.66,0,0,0,.33-2.59,4.24,4.24,0,0,0-1.34-3.34A5.09,5.09,0,0,0,8.07,2a6,6,0,0,0-2.95.74A5.35,5.35,0,0,0,3,4.78,5.72,5.72,0,0,0,2.31,7.7a3.84,3.84,0,0,0,.25,1.36A4.57,4.57,0,0,0,3,10a1.55,1.55,0,0,1,.25.54,2.73,2.73,0,0,1-.17.82c-.14.41-.29.62-.45.62a1.8,1.8,0,0,1-1.15-.56,4.27,4.27,0,0,1-1-1.5A6.5,6.5,0,0,1,0,7.41a6.63,6.63,0,0,1,1.24-4A7.93,7.93,0,0,1,4.32.93,9.33,9.33,0,0,1,8.4,0Z"/></g></g></svg>