<svg xmlns="http://www.w3.org/2000/svg" viewBox="0 0 105 83"><defs><style>.\33 43e94a8-c673-4cec-bbb6-34a21814a8c8{fill:#212121;}</style></defs><title>place-here</title><g id="99cfc5d5-fc4f-474a-ac2a-9b763b8ab1e5" data-name="Layer 2"><g id="03c8793f-174b-41cc-a839-209769cdf312" data-name="Layer 1"><rect class="343e94a8-c673-4cec-bbb6-34a21814a8c8" x="6" y="14" width="7" height="3"/><rect class="343e94a8-c673-4cec-bbb6-34a21814a8c8" x="24" y="80" width="7" height="3"/><rect class="343e94a8-c673-4cec-bbb6-34a21814a8c8" x="97" y="14" width="7" height="3"/><rect class="343e94a8-c673-4cec-bbb6-34a21814a8c8" y="16" width="3" height="7"/><rect class="343e94a8-c673-4cec-bbb6-34a21814a8c8" x="9" y="80" width="7" height="3"/><rect class="343e94a8-c673-4cec-bbb6-34a21814a8c8" y="61" width="3" height="7"/><rect class="343e94a8-c673-4cec-bbb6-34a21814a8c8" y="31" width="3" height="7"/><rect class="343e94a8-c673-4cec-bbb6-34a21814a8c8" y="76" width="3" height="7"/><rect class="343e94a8-c673-4cec-bbb6-34a21814a8c8" y="46" width="3" height="7"/><rect class="343e94a8-c673-4cec-bbb6-34a21814a8c8" x="102" y="36" width="3" height="7"/><rect class="343e94a8-c673-4cec-bbb6-34a21814a8c8" x="84" y="80" width="7" height="3"/><rect class="343e94a8-c673-4cec-bbb6-34a21814a8c8" x="102" y="65" width="3" height="7"/><rect class="343e94a8-c673-4cec-bbb6-34a21814a8c8" x="99" y="80" width="5" height="3"/><rect class="343e94a8-c673-4cec-bbb6-34a21814a8c8" x="102" y="21" width="3" height="7"/><rect class="343e94a8-c673-4cec-bbb6-34a21814a8c8" x="102" y="50" width="3" height="7"/><rect class="343e94a8-c673-4cec-bbb6-34a21814a8c8" x="82" y="14" width="7" height="3"/><rect class="343e94a8-c673-4cec-bbb6-34a21814a8c8" x="40" y="80" width="7" height="3"/><rect class="343e94a8-c673-4cec-bbb6-34a21814a8c8" x="55" y="80" width="7" height="3"/><rect class="343e94a8-c673-4cec-bbb6-34a21814a8c8" x="69" y="80" width="7" height="3"/><path class="343e94a8-c673-4cec-bbb6-34a21814a8c8" d="M72,17h2V14H72V0H17V47H72ZM69,44H20V40.86l.26.26,11.3-11.35,6.88,6.91,18.12-18.2L69,31.45Zm0-16.16L56.56,15.34,38.44,33.54l-6.88-6.9L20,38.25V3H69Z"/><path class="343e94a8-c673-4cec-bbb6-34a21814a8c8" d="M33.69,22.14a6.28,6.28,0,1,0-6.27-6.28A6.28,6.28,0,0,0,33.69,22.14Zm0-10a3.77,3.77,0,1,1-3.76,3.76A3.77,3.77,0,0,1,33.69,12.1Z"/></g></g></svg>