<svg xmlns="http://www.w3.org/2000/svg" viewBox="0 0 21.09 17.13"><defs><style>.c0c7ec18-2656-4375-872d-6b040c04cbc7{fill:#1bbced;}</style></defs><title>twiter</title><g id="ab7c2855-70cc-4d6f-99a2-3f609b54debc" data-name="Layer 2"><g id="88702e2d-0620-46e2-925e-4d6984e6a52b" data-name="Layer 1"><path class="c0c7ec18-2656-4375-872d-6b040c04cbc7" d="M18.94,4.82a12.21,12.21,0,0,1-1.44,5.72,11.76,11.76,0,0,1-4.16,4.65,11.88,11.88,0,0,1-6.71,1.94A12,12,0,0,1,0,15.2c.3,0,.65,0,1,0a8.57,8.57,0,0,0,5.4-1.85,4,4,0,0,1-2.53-.84,4.3,4.3,0,0,1-1.5-2.12,7.76,7.76,0,0,0,.78,0,5.51,5.51,0,0,0,1.15-.12A4.35,4.35,0,0,1,1.85,8.81a4.14,4.14,0,0,1-1-2.72V6a4.07,4.07,0,0,0,1.94.58A4.79,4.79,0,0,1,1.4,5,4.2,4.2,0,0,1,1.48.78,11.93,11.93,0,0,0,5.42,4a12,12,0,0,0,5,1.32,6,6,0,0,1-.08-1,4.29,4.29,0,0,1,.58-2.16A4.24,4.24,0,0,1,12.44.58,4.18,4.18,0,0,1,14.58,0a4.13,4.13,0,0,1,1.75.37,4.89,4.89,0,0,1,1.42,1,8.81,8.81,0,0,0,2.76-1,4.29,4.29,0,0,1-1.89,2.39A9.29,9.29,0,0,0,21.09,2,9.52,9.52,0,0,1,18.9,4.28,2.47,2.47,0,0,1,18.94,4.82Z"/></g></g></svg>