<svg xmlns="http://www.w3.org/2000/svg" viewBox="0 0 25.85 15.38"><defs><style>.cb8b74c5-7db3-4eb3-9a81-9c68a7954717{fill:#416fa5;}</style></defs><title>vk</title><g id="3b8f0cc1-c8ec-4e6f-8888-4c2c4cb56b1c" data-name="Layer 2"><g id="1a89a3e9-065c-4f33-a42b-ca7987d88da1" data-name="Layer 1"><path class="cb8b74c5-7db3-4eb3-9a81-9c68a7954717" d="M25.27,1.06a9.3,9.3,0,0,1-1.15,2.4q-.72,1.2-1.73,2.79-.87,1.25-.91,1.3a1.38,1.38,0,0,0-.29.67,1,1,0,0,0,.29.58l.43.48q3.46,3.56,3.89,4.9a1,1,0,0,1-.12.89,1,1,0,0,1-.84.31H22A1.53,1.53,0,0,1,21,15a7.27,7.27,0,0,1-1-1q-.74-.84-1.32-1.42-1.92-1.83-2.83-1.83a.85.85,0,0,0-.55.14.83.83,0,0,0-.17.62,13.81,13.81,0,0,0,0,1.49v1.25a.84.84,0,0,1-.29.82,3.47,3.47,0,0,1-1.73.29A9,9,0,0,1,8.5,14a12.74,12.74,0,0,1-4-3.84A28.9,28.9,0,0,1,1.73,5.72,28.88,28.88,0,0,1,.34,2.5,7.46,7.46,0,0,1,0,.82Q0,0,1,0H3.8a1.15,1.15,0,0,1,.79.24A2,2,0,0,1,5,1.1,27.64,27.64,0,0,0,6.68,4.85,15.72,15.72,0,0,0,8.41,7.59q.87,1.06,1.35,1.06a.43.43,0,0,0,.41-.22,2,2,0,0,0,.12-.84V3.41a3.45,3.45,0,0,0-.34-1.35,3.24,3.24,0,0,0-.48-.74A1.19,1.19,0,0,1,9.13.65.59.59,0,0,1,9.35.19.73.73,0,0,1,9.85,0h4.47a.68.68,0,0,1,.6.24,1.48,1.48,0,0,1,.17.82V6.63a1.06,1.06,0,0,0,.14.62.44.44,0,0,0,.36.19,1,1,0,0,0,.5-.17,3.8,3.8,0,0,0,.77-.7,16.89,16.89,0,0,0,1.83-2.5,26,26,0,0,0,1.2-2.31l.48-1A1.21,1.21,0,0,1,21.57,0h2.83Q25.56,0,25.27,1.06Z"/></g></g></svg>