<svg xmlns="http://www.w3.org/2000/svg" viewBox="0 0 33.58 21"><defs><style>.c7496e08-1e0a-49af-9639-c33ec3fd3e0a{fill:#fff;}</style></defs><title>g-plus</title><g id="557b10b2-a99e-4c66-b298-67926b24cfdc" data-name="Layer 2"><g id="f5e9463f-bb1a-4aff-b543-3fc18ffa2d20" data-name="Layer 1"><path class="c7496e08-1e0a-49af-9639-c33ec3fd3e0a" d="M20.56,10.72a11,11,0,0,1-1.26,5.33,9.08,9.08,0,0,1-3.55,3.64A10.44,10.44,0,0,1,10.5,21a10.25,10.25,0,0,1-5.28-1.42,10.5,10.5,0,0,1-3.83-3.83A10.26,10.26,0,0,1,0,10.5,10.26,10.26,0,0,1,1.39,5.25,10.5,10.5,0,0,1,5.22,1.42,10.25,10.25,0,0,1,10.5,0a9.85,9.85,0,0,1,7,2.73L14.66,5.47A5.74,5.74,0,0,0,10.5,3.88,6.5,6.5,0,0,0,4.87,7.16,6.57,6.57,0,0,0,4,10.5a6.57,6.57,0,0,0,.88,3.34,6.5,6.5,0,0,0,5.63,3.28,6.64,6.64,0,0,0,3.34-.82,5.18,5.18,0,0,0,1.86-1.86,5.06,5.06,0,0,0,.76-1.81h-6V9h9.9A10,10,0,0,1,20.56,10.72Zm10-4.43H27.45V9.35h-3v3.06h3v3.07h3.07V12.41h3.06V9.35H30.52Z"/></g></g></svg>