<svg xmlns="http://www.w3.org/2000/svg" viewBox="0 0 16 12"><defs><style>.\34 5558ddc-99d5-474d-b851-5fdc60755592{fill:#303a43;}</style></defs><title>Asset 7</title><g id="1a65ff06-2062-47c7-a306-02e610220779" data-name="Layer 2"><g id="5e46492f-fe59-450e-8888-1fc4eed37a05" data-name="Layer 1"><path class="45558ddc-99d5-474d-b851-5fdc60755592" d="M8,8a2,2,0,0,1-1-.37,7.48,7.48,0,0,1-1-.69l-.31-.22Q1.88,3.91.5,2.84L.28,2.69A.71.71,0,0,1,0,2.09V1.5A1.45,1.45,0,0,1,.44.44,1.45,1.45,0,0,1,1.5,0h13a1.45,1.45,0,0,1,1.06.44A1.45,1.45,0,0,1,16,1.5v.59a.71.71,0,0,1-.28.59l-.16.13q-1.34,1.06-5.28,3.91L10,6.94a7.48,7.48,0,0,1-1,.69A2,2,0,0,1,8,8Zm7.69-4q-1.12.87-4.81,3.53l-.31.25a8.78,8.78,0,0,1-1.19.81A2.77,2.77,0,0,1,8,9a2.93,2.93,0,0,1-1.37-.41,12.45,12.45,0,0,1-1.19-.81L5.13,7.5Q1.34,4.75.31,4a.2.2,0,0,0-.2,0A.17.17,0,0,0,0,4.13V10.5a1.45,1.45,0,0,0,.44,1.06A1.45,1.45,0,0,0,1.5,12h13A1.49,1.49,0,0,0,16,10.5V4.13a.2.2,0,0,0-.11-.19A.15.15,0,0,0,15.69,4Z"/></g></g></svg>