<svg xmlns="http://www.w3.org/2000/svg" viewBox="0 0 14 16"><defs><style>.d1fe1427-6ee5-40e6-b75e-3cb3ac2b27d3{fill:#303a43;}</style></defs><title>Asset 6</title><g id="0cfda418-ec81-4ded-9c2b-561b9fc1f241" data-name="Layer 2"><g id="223ae851-794a-470f-be96-577329929296" data-name="Layer 1"><path class="d1fe1427-6ee5-40e6-b75e-3cb3ac2b27d3" d="M9.81,9a4.1,4.1,0,0,1,2.09.56,4.16,4.16,0,0,1,1.53,1.53A4.1,4.1,0,0,1,14,13.19V14.5A1.49,1.49,0,0,1,12.5,16H1.5a1.45,1.45,0,0,1-1.06-.44A1.44,1.44,0,0,1,0,14.5V13.19a4.1,4.1,0,0,1,.56-2.09A4.16,4.16,0,0,1,2.09,9.56,4.1,4.1,0,0,1,4.19,9h.53A5.45,5.45,0,0,0,9.28,9ZM7,8a4,4,0,0,1-2-.53A3.89,3.89,0,0,1,3.53,6,4,4,0,0,1,3,4a4,4,0,0,1,.53-2A3.9,3.9,0,0,1,5,.53a4.09,4.09,0,0,1,4,0A3.9,3.9,0,0,1,10.47,2,4,4,0,0,1,11,4a4,4,0,0,1-.53,2A3.89,3.89,0,0,1,9,7.47,4,4,0,0,1,7,8Z"/></g></g></svg>