<svg xmlns="http://www.w3.org/2000/svg" viewBox="0 0 15.99 15.99"><defs><style>.b560ad39-090e-4953-9241-2df5502fff1d{fill:#303a43;}</style></defs><title>Asset 8</title><g id="4b504745-c4d0-4e74-8f38-4f0fbc0958d5" data-name="Layer 2"><g id="c485f3b2-765b-498c-aa65-cae8328f177a" data-name="Layer 1"><path class="b560ad39-090e-4953-9241-2df5502fff1d" d="M15.4.77a.59.59,0,0,1,.44.25.79.79,0,0,1,.16.47A14.26,14.26,0,0,1,14,8.8,14.57,14.57,0,0,1,8.8,14a14.26,14.26,0,0,1-7.31,2A.79.79,0,0,1,1,15.83a.59.59,0,0,1-.25-.44L0,12.15a.71.71,0,0,1,.06-.5.67.67,0,0,1,.38-.34L4,9.8a.79.79,0,0,1,.47,0,.63.63,0,0,1,.41.27L6.36,11.9A11,11,0,0,0,9.63,9.61,11.47,11.47,0,0,0,11.9,6.36L10,4.8a.75.75,0,0,1-.25-.39.78.78,0,0,1,0-.48L11.3.43a.69.69,0,0,1,.34-.34.71.71,0,0,1,.5-.06Z"/></g></g></svg>