<svg xmlns="http://www.w3.org/2000/svg" viewBox="0 0 133 55.11"><defs><style>.b78e827e-e31a-459e-a880-f0dd01074b97{fill:#6fc7e3;}.\33 a55d915-63c9-4dd7-828a-c93262f38b5a{fill:#fff;}.\38 f9b1f7c-9914-46fa-bbeb-0f7646797bbd{fill:#008299;}</style></defs><title>top-logo</title><g id="b2f2e30d-fc92-4a09-b9b7-4c9cea568302" data-name="Layer 2"><g id="ab0dff48-2317-4467-9c9e-2b46297c5321" data-name="Layer 3"><polygon class="b78e827e-e31a-459e-a880-f0dd01074b97" points="15.53 39.58 0 55.11 0 39.58 15.53 39.58"/><path class="3a55d915-63c9-4dd7-828a-c93262f38b5a" d="M78.92,10.31v5.15H76.86V10.33L72.1,2.91h2.4l3.4,5.6,3.35-5.6h2.4Z"/><path class="3a55d915-63c9-4dd7-828a-c93262f38b5a" d="M90.24,15.67a6.25,6.25,0,0,1-6.59-6.49,6.58,6.58,0,0,1,13.16,0A6.18,6.18,0,0,1,90.24,15.67Zm0-11.3c-2.82,0-4.44,2.31-4.44,4.81A4.54,4.54,0,0,0,90.22,14a4.46,4.46,0,0,0,4.44-4.81C94.66,6.7,93.09,4.37,90.24,4.37Z"/><path class="3a55d915-63c9-4dd7-828a-c93262f38b5a" d="M104,15.67a5.12,5.12,0,0,1-5.45-5.36V2.91h2.06V10c0,2.29,1.22,4,3.39,4s3.33-1.65,3.33-3.94V2.91h2.08v7.38A5.09,5.09,0,0,1,104,15.67Z"/><path class="3a55d915-63c9-4dd7-828a-c93262f38b5a" d="M118.2,15.46l-3.28-5.18h-1.18v5.18h-2.06V2.91h3.73c2.37,0,4.39.93,4.39,3.66A3.42,3.42,0,0,1,117,10l3.7,5.5ZM115.33,4.57h-1.59V8.71h1.39c1.68,0,2.56-.74,2.56-2S116.82,4.57,115.33,4.57Z"/><path class="b78e827e-e31a-459e-a880-f0dd01074b97" d="M79.84,33.08H76.42v-10H72.23V20.53H84V23.1H79.84Z"/><path class="b78e827e-e31a-459e-a880-f0dd01074b97" d="M89.62,28.25H88.7v4.83H85.28V20.53H91c2.27,0,4,1.41,4,3.56a3.75,3.75,0,0,1-2.38,3.56l3,5.43H91.91Zm-.94-5.38V25.8h1.24c.9,0,1.74-.32,1.74-1.5,0-.88-.74-1.43-1.74-1.43Z"/><path class="b78e827e-e31a-459e-a880-f0dd01074b97" d="M105,30.38h-4.67l-.95,2.7H95.94l4.66-12.55h4.31l4.76,12.55h-3.74Zm-2.33-7.29L101.11,28h3.15l-1.48-4.91Z"/><path class="b78e827e-e31a-459e-a880-f0dd01074b97" d="M110.53,33.08V20.53h4.78c4.3,0,7.38,1.37,7.38,6.22,0,4.69-3.19,6.33-7.4,6.33ZM114,23v7.51h1.34c2.43,0,3.84-1.25,3.84-3.74S117.71,23,115.31,23Z"/><path class="b78e827e-e31a-459e-a880-f0dd01074b97" d="M124.26,20.53h8.55v2.41h-5.13v2.54h4.63V27.9h-4.63v2.76H133v2.42h-8.74Z"/><path class="3a55d915-63c9-4dd7-828a-c93262f38b5a" d="M86.61,50.7H84L81.32,40h0L78.62,50.7H75.91L72.09,38.15h2.18l3,10.57h0l2.61-10.57h2.76l2.65,10.57h0l3-10.57h2.09Z"/><path class="3a55d915-63c9-4dd7-828a-c93262f38b5a" d="M99.86,50.7l-1.2-3.09H92.81l-1.2,3.09H89.48l5.16-12.55H97l5.12,12.55ZM95.79,40h0l-2.34,6h4.65Z"/><path class="3a55d915-63c9-4dd7-828a-c93262f38b5a" d="M107.17,45.55V50.7h-2.06V45.57l-4.76-7.42h2.4l3.4,5.6,3.34-5.6h2.4Z"/><path class="b78e827e-e31a-459e-a880-f0dd01074b97" d="M41.33,13.78H13.78l5.54,5.55a.9.9,0,0,1,0,1.31A11.72,11.72,0,0,1,0,11.71V0H55.11Z"/><polygon class="8f9b1f7c-9914-46fa-bbeb-0f7646797bbd" points="15.53 39.58 15.53 55.11 0 55.11 15.53 39.58"/><path class="8f9b1f7c-9914-46fa-bbeb-0f7646797bbd" d="M55.11,0V55.11H43.39a11.71,11.71,0,0,1-8.93-19.29.9.9,0,0,1,1.31,0l5.56,5.55V13.78Z"/></g></g></svg>