<svg xmlns="http://www.w3.org/2000/svg" viewBox="0 0 25 20.31"><defs><style>.\33 41cbdc7-9a71-4fe0-afaa-48f9b5ab1a12{fill:#fff;}</style></defs><title>twitter</title><g id="305507ea-d14c-44ad-93ee-6a2d2ae97015" data-name="Layer 2"><g id="3a93d961-2d71-4db4-9b47-22b37d37f0d0" data-name="Layer 1"><path class="341cbdc7-9a71-4fe0-afaa-48f9b5ab1a12" d="M22.46,5.71a14.46,14.46,0,0,1-1.71,6.79A13.93,13.93,0,0,1,15.82,18a14.07,14.07,0,0,1-8,2.29A14.24,14.24,0,0,1,0,18c.36,0,.76.05,1.22.05a10.2,10.2,0,0,0,6.4-2.2,4.79,4.79,0,0,1-3-1,5.16,5.16,0,0,1-1.78-2.52,7.65,7.65,0,0,0,.93.05,7.08,7.08,0,0,0,1.37-.14A5.19,5.19,0,0,1,2.2,10.45,4.93,4.93,0,0,1,1,7.23v-.1a4.8,4.8,0,0,0,2.29.68A5.68,5.68,0,0,1,1.66,6,5,5,0,0,1,1,3.49,4.88,4.88,0,0,1,1.76.93,14.26,14.26,0,0,0,6.42,4.74,14.29,14.29,0,0,0,12.3,6.3a7.68,7.68,0,0,1-.09-1.17A5.14,5.14,0,0,1,14.75.68,5,5,0,0,1,17.29,0a4.93,4.93,0,0,1,2.07.44A5.51,5.51,0,0,1,21,1.61,10.36,10.36,0,0,0,24.32.39a5.08,5.08,0,0,1-2.25,2.83A10.76,10.76,0,0,0,25,2.39a11.41,11.41,0,0,1-2.59,2.69A3,3,0,0,1,22.46,5.71Z"/></g></g></svg>